<?xml version="1.0" standalone="no"?><!DOCTYPE svg PUBLIC "-//W3C//DTD SVG 1.1//EN" "http://www.w3.org/Graphics/SVG/1.1/DTD/svg11.dtd"><svg t="1683162511509" class="icon" viewBox="0 0 1024 1024" version="1.1" xmlns="http://www.w3.org/2000/svg" p-id="1101" xmlns:xlink="http://www.w3.org/1999/xlink" width="200" height="200"><path d="M942.08 61.44c11.264 0 20.48 9.216 20.48 20.48v860.16c0 11.264-9.216 20.48-20.48 20.48H81.92c-11.264 0-20.48-9.216-20.48-20.48V81.92c0-11.264 9.216-20.48 20.48-20.48h860.16m0-61.44H81.92C36.864 0 0 36.864 0 81.92v860.16c0 45.056 36.864 81.92 81.92 81.92h860.16c45.056 0 81.92-36.864 81.92-81.92V81.92c0-45.056-36.864-81.92-81.92-81.92z" fill="#5CC6C7" p-id="1102"></path><path d="M235.52 296.96m-30.72 0a30.72 30.72 0 1 0 61.44 0 30.72 30.72 0 1 0-61.44 0Z" fill="#5CC6C7" p-id="1103"></path><path d="M788.48 329.216H389.12c-16.896 0-30.72-13.824-30.72-30.72s13.824-30.72 30.72-30.72h399.36c16.896 0 30.72 13.824 30.72 30.72s-13.824 30.72-30.72 30.72z" fill="#5CC6C7" p-id="1104"></path><path d="M235.52 522.24m-30.72 0a30.72 30.72 0 1 0 61.44 0 30.72 30.72 0 1 0-61.44 0Z" fill="#5CC6C7" p-id="1105"></path><path d="M788.48 554.496H389.12c-16.896 0-30.72-13.824-30.72-30.72s13.824-30.72 30.72-30.72h399.36c16.896 0 30.72 13.824 30.72 30.72s-13.824 30.72-30.72 30.72z" fill="#5CC6C7" p-id="1106"></path><path d="M235.52 747.52m-30.72 0a30.72 30.72 0 1 0 61.44 0 30.72 30.72 0 1 0-61.44 0Z" fill="#5CC6C7" p-id="1107"></path><path d="M788.48 779.776H389.12c-16.896 0-30.72-13.824-30.72-30.72s13.824-30.72 30.72-30.72h399.36c16.896 0 30.72 13.824 30.72 30.72s-13.824 30.72-30.72 30.72z" fill="#5CC6C7" p-id="1108"></path></svg>