<?xml version="1.0" standalone="no"?><!DOCTYPE svg PUBLIC "-//W3C//DTD SVG 1.1//EN" "http://www.w3.org/Graphics/SVG/1.1/DTD/svg11.dtd"><svg t="1683247640467" class="icon" viewBox="0 0 1024 1024" version="1.1" xmlns="http://www.w3.org/2000/svg" p-id="1273" xmlns:xlink="http://www.w3.org/1999/xlink" width="200" height="200"><path d="M811.36 439.2H212.64a25.92 25.92 0 1 1 0-51.84h598.72c14.4 0 25.92 11.68 25.92 25.92 0 14.4-11.52 25.92-25.92 25.92z" fill="#e6e6e6" p-id="1274"></path><path d="M408.16 767.2c-14.4 0-25.92-11.68-25.92-25.92v-328a25.92 25.92 0 1 1 51.84 0v328c0.16 14.24-11.52 25.92-25.92 25.92zM615.84 767.2c-14.4 0-25.92-11.68-25.92-25.92v-328a25.92 25.92 0 1 1 51.84 0v328c0 14.24-11.68 25.92-25.92 25.92z" fill="#e6e6e6" p-id="1275"></path><path d="M811.36 603.2H212.64a25.92 25.92 0 1 1 0-51.84h598.72a25.92 25.92 0 1 1 0 51.84z" fill="#e6e6e6" p-id="1276"></path><path d="M811.36 767.2H212.64c-14.4 0-25.92-11.68-25.92-25.92V282.72c0-14.4 11.68-25.92 25.92-25.92h598.72c14.4 0 25.92 11.68 25.92 25.92v458.4c0 14.4-11.52 26.08-25.92 26.08z m-572.8-52h546.88V308.8H238.56v406.4z" fill="#e6e6e6" p-id="1277"></path></svg>